<svg width="4000" height="3000" viewBox="0 0 4000 3000" fill="none" xmlns="http://www.w3.org/2000/svg">
<path opacity="0.3" fill-rule="evenodd" clip-rule="evenodd" d="M3994 1500C3994 1911.9 3771.41 2285.27 3410.61 2555.86C3049.82 2826.46 2551.11 2994 2000 2994C1448.89 2994 950.181 2826.46 589.386 2555.86C228.594 2285.27 6 1911.9 6 1500C6 1088.1 228.594 714.734 589.386 444.14C950.181 173.544 1448.89 6 2000 6C2551.11 6 3049.82 173.544 3410.61 444.14C3771.41 714.734 3994 1088.1 3994 1500ZM4000 1500C4000 2328.43 3104.57 3000 2000 3000C895.43 3000 0 2328.43 0 1500C0 671.573 895.43 0 2000 0C3104.57 0 4000 671.573 4000 1500ZM3233.83 2425.05C3549.38 2187.94 3744 1860.82 3744 1500C3744 1139.18 3549.38 812.065 3233.83 574.951C2918.28 337.836 2482.07 191 2000 191C1517.93 191 1081.72 337.836 766.168 574.951C450.617 812.065 256 1139.18 256 1500C256 1860.82 450.617 2187.94 766.168 2425.05C1081.72 2662.16 1517.93 2809 2000 2809C2482.07 2809 2918.28 2662.16 3233.83 2425.05ZM2000 2815C2966.5 2815 3750 2226.25 3750 1500C3750 773.746 2966.5 185 2000 185C1033.5 185 250 773.746 250 1500C250 2226.25 1033.5 2815 2000 2815ZM3494 1500C3494 1808.35 3327.37 2087.96 3057.06 2290.7C2786.75 2493.43 2413.04 2619 2000 2619C1586.96 2619 1213.25 2493.43 942.94 2290.7C672.63 2087.96 506 1808.35 506 1500C506 1191.65 672.63 912.037 942.94 709.305C1213.25 506.571 1586.96 381 2000 381C2413.04 381 2786.75 506.571 3057.06 709.305C3327.37 912.037 3494 1191.65 3494 1500ZM3500 1500C3500 2121.32 2828.43 2625 2000 2625C1171.57 2625 500 2121.32 500 1500C500 878.68 1171.57 375 2000 375C2828.43 375 3500 878.68 3500 1500ZM2880.28 2159.89C3105.35 1990.63 3244 1757.27 3244 1500C3244 1242.73 3105.35 1009.37 2880.28 840.115C2655.21 670.862 2344 566 2000 566C1656 566 1344.79 670.862 1119.72 840.115C894.654 1009.37 756 1242.73 756 1500C756 1757.27 894.654 1990.63 1119.72 2159.89C1344.79 2329.14 1656 2434 2000 2434C2344 2434 2655.21 2329.14 2880.28 2159.89ZM2000 2440C2690.36 2440 3250 2019.15 3250 1500C3250 980.852 2690.36 560 2000 560C1309.64 560 750 980.852 750 1500C750 2019.15 1309.64 2440 2000 2440ZM2989 1497.5C2989 1702.99 2878.33 1889.48 2698.5 2024.8C2518.67 2160.13 2269.97 2244 1995 2244C1720.04 2244 1471.33 2160.13 1291.5 2024.8C1111.67 1889.48 1001 1702.99 1001 1497.5C1001 1292.01 1111.67 1105.52 1291.5 970.196C1471.33 834.875 1720.04 751 1995 751C2269.97 751 2518.67 834.875 2698.5 970.196C2878.33 1105.52 2989 1292.01 2989 1497.5ZM2995 1497.5C2995 1913.09 2547.28 2250 1995 2250C1442.72 2250 995 1913.09 995 1497.5C995 1081.91 1442.72 745 1995 745C2547.28 745 2995 1081.91 2995 1497.5ZM2521.72 1889.72C2656.31 1788.34 2739 1648.72 2739 1495C2739 1341.28 2656.31 1201.66 2521.72 1100.28C2387.13 998.887 2200.93 936 1995 936C1789.07 936 1602.87 998.887 1468.28 1100.28C1333.69 1201.66 1251 1341.28 1251 1495C1251 1648.72 1333.69 1788.34 1468.28 1889.72C1602.87 1991.11 1789.07 2054 1995 2054C2200.93 2054 2387.13 1991.11 2521.72 1889.72ZM1995 2060C2409.21 2060 2745 1807.04 2745 1495C2745 1182.96 2409.21 930 1995 930C1580.79 930 1245 1182.96 1245 1495C1245 1807.04 1580.79 2060 1995 2060ZM2484 1492.5C2484 1594.45 2429.28 1687.19 2339.94 1754.64C2250.59 1822.1 2126.89 1864 1990 1864C1853.11 1864 1729.41 1822.1 1640.06 1754.64C1550.72 1687.19 1496 1594.45 1496 1492.5C1496 1390.55 1550.72 1297.81 1640.06 1230.36C1729.41 1162.9 1853.11 1121 1990 1121C2126.89 1121 2250.59 1162.9 2339.94 1230.36C2429.28 1297.81 2484 1390.55 2484 1492.5ZM2490 1492.5C2490 1700.99 2266.14 1870 1990 1870C1713.86 1870 1490 1700.99 1490 1492.5C1490 1284.01 1713.86 1115 1990 1115C2266.14 1115 2490 1284.01 2490 1492.5ZM2234 1492.5C2234 1541.96 2207.28 1587.2 2163.18 1620.28C2119.07 1653.36 2057.86 1674 1990 1674C1922.14 1674 1860.93 1653.36 1816.82 1620.28C1772.72 1587.2 1746 1541.96 1746 1492.5C1746 1443.04 1772.72 1397.8 1816.82 1364.72C1860.93 1331.64 1922.14 1311 1990 1311C2057.86 1311 2119.07 1331.64 2163.18 1364.72C2207.28 1397.8 2234 1443.04 2234 1492.5ZM2240 1492.5C2240 1596.05 2128.07 1680 1990 1680C1851.93 1680 1740 1596.05 1740 1492.5C1740 1388.95 1851.93 1305 1990 1305C2128.07 1305 2240 1388.95 2240 1492.5Z" fill="url(#paint0_linear_581_16)"/>
<defs>
<linearGradient id="paint0_linear_581_16" x1="2000" y1="0" x2="2000" y2="3000" gradientUnits="userSpaceOnUse">
<stop stop-color="#C8C8C8" stop-opacity="0.4"/>
<stop offset="0.496139" stop-color="white"/>
<stop offset="1" stop-color="#B7B7B7" stop-opacity="0.4"/>
</linearGradient>
</defs>
</svg>
