<svg width="192" height="70" viewBox="0 0 192 70" fill="none" xmlns="http://www.w3.org/2000/svg">
<path fill-rule="evenodd" clip-rule="evenodd" d="M35.2503 3.56218L33.482 0L31.6768 3.5436L19.2873 27.8637L18.3999 29.6057L20.1211 30.5325C27.532 34.523 29.3028 41.4587 29.3017 45.5853H11.8919H10.6435L10.0952 46.7069L0 67.3561L1.34758 68.0149L2.24596 68.4541L3.59354 69.1129L13.1404 49.5853H31.1645H32.89L33.1429 47.8784C33.7953 43.4744 32.6768 33.8394 23.7027 28.0084L33.4357 8.90289L63.3295 69.1238L64.6731 68.4568L65.5688 68.0122L66.9124 67.3452L35.2503 3.56218Z" fill="url(#paint0_linear_551_6)"/>
<path d="M81.4321 47.6838C82.8721 47.6838 84.2188 47.9638 85.4721 48.5238C86.7521 49.0571 87.8588 49.7904 88.7921 50.7238C89.7521 51.6571 90.4988 52.7638 91.0321 54.0438C91.5921 55.3238 91.8721 56.6838 91.8721 58.1238V68.1238H88.4321V58.1238C88.4321 57.1638 88.2454 56.2571 87.8721 55.4038C87.5254 54.5504 87.0321 53.8038 86.3921 53.1638C85.7788 52.5238 85.0454 52.0304 84.1921 51.6838C83.3388 51.3104 82.4188 51.1238 81.4321 51.1238C80.4721 51.1238 79.5654 51.3104 78.7121 51.6838C77.8588 52.0304 77.1121 52.5238 76.4721 53.1638C75.8588 53.8038 75.3654 54.5504 74.9921 55.4038C74.6188 56.2571 74.4321 57.1638 74.4321 58.1238V68.1238H71.0321V58.1238C71.0321 56.6838 71.2988 55.3238 71.8321 54.0438C72.3921 52.7638 73.1388 51.6571 74.0721 50.7238C75.0321 49.7904 76.1388 49.0571 77.3921 48.5238C78.6454 47.9638 79.9921 47.6838 81.4321 47.6838ZM106.542 47.6438C107.902 47.6438 109.169 47.8838 110.342 48.3638C111.542 48.8438 112.609 49.4971 113.542 50.3238V38.8038H116.942V58.0838C116.942 59.5238 116.662 60.8838 116.102 62.1638C115.569 63.4171 114.836 64.5104 113.902 65.4438C112.969 66.3771 111.862 67.1238 110.582 67.6838C109.329 68.2171 107.982 68.4838 106.542 68.4838C105.102 68.4838 103.756 68.2171 102.502 67.6838C101.249 67.1238 100.142 66.3771 99.1824 65.4438C98.2491 64.5104 97.5024 63.4171 96.9424 62.1638C96.4091 60.8838 96.1424 59.5238 96.1424 58.0838C96.1424 56.6438 96.4091 55.2971 96.9424 54.0438C97.5024 52.7638 98.2491 51.6571 99.1824 50.7238C100.142 49.7638 101.249 49.0171 102.502 48.4838C103.756 47.9238 105.102 47.6438 106.542 47.6438ZM106.542 51.0838C105.582 51.0838 104.676 51.2704 103.822 51.6438C102.969 51.9904 102.222 52.4838 101.582 53.1238C100.969 53.7638 100.476 54.5104 100.102 55.3638C99.7291 56.2171 99.5424 57.1238 99.5424 58.0838C99.5424 59.0438 99.7291 59.9504 100.102 60.8038C100.476 61.6571 100.969 62.4038 101.582 63.0438C102.222 63.6571 102.969 64.1504 103.822 64.5238C104.676 64.8971 105.582 65.0838 106.542 65.0838C107.502 65.0838 108.409 64.8971 109.262 64.5238C110.116 64.1504 110.862 63.6571 111.502 63.0438C112.142 62.4038 112.636 61.6571 112.982 60.8038C113.356 59.9504 113.542 59.0438 113.542 58.0838C113.542 57.1238 113.356 56.2171 112.982 55.3638C112.636 54.5104 112.142 53.7638 111.502 53.1238C110.862 52.4838 110.116 51.9904 109.262 51.6438C108.409 51.2704 107.502 51.0838 106.542 51.0838ZM124.689 68.1238H121.249V58.1238C121.249 56.6838 121.542 55.3238 122.129 54.0438C122.716 52.7638 123.516 51.6571 124.529 50.7238C125.542 49.7904 126.716 49.0571 128.049 48.5238C129.409 47.9638 130.862 47.6838 132.409 47.6838V51.1238C131.342 51.1238 130.342 51.3104 129.409 51.6838C128.476 52.0304 127.649 52.5238 126.929 53.1638C126.236 53.8038 125.689 54.5504 125.289 55.4038C124.889 56.2571 124.689 57.1638 124.689 58.1238V68.1238ZM151.058 56.4838C150.845 55.7371 150.525 55.0438 150.098 54.4038C149.698 53.7371 149.205 53.1771 148.618 52.7238C148.032 52.2438 147.365 51.8704 146.618 51.6038C145.898 51.3371 145.125 51.2038 144.298 51.2038C143.472 51.2038 142.685 51.3371 141.938 51.6038C141.218 51.8704 140.565 52.2438 139.978 52.7238C139.392 53.1771 138.885 53.7371 138.458 54.4038C138.032 55.0438 137.725 55.7371 137.538 56.4838H151.058ZM144.298 68.6038C142.858 68.6038 141.498 68.3371 140.218 67.8038C138.965 67.2438 137.858 66.4971 136.898 65.5638C135.965 64.6038 135.218 63.4971 134.658 62.2438C134.125 60.9904 133.858 59.6438 133.858 58.2038C133.858 56.7638 134.125 55.4038 134.658 54.1238C135.218 52.8438 135.965 51.7371 136.898 50.8038C137.858 49.8704 138.965 49.1371 140.218 48.6038C141.498 48.0438 142.858 47.7638 144.298 47.7638C145.738 47.7638 147.085 48.0438 148.338 48.6038C149.618 49.1371 150.725 49.8704 151.658 50.8038C152.592 51.7371 153.325 52.8438 153.858 54.1238C154.418 55.4038 154.698 56.7638 154.698 58.2038C154.698 58.3904 154.698 58.5904 154.698 58.8038C154.698 59.0171 154.672 59.3771 154.618 59.8838H137.538C137.725 60.6571 138.032 61.3638 138.458 62.0038C138.885 62.6438 139.392 63.2038 139.978 63.6838C140.565 64.1638 141.218 64.5371 141.938 64.8038C142.685 65.0704 143.472 65.2038 144.298 65.2038C144.938 65.2038 145.578 65.0438 146.218 64.7238C146.858 64.3771 147.472 63.9238 148.058 63.3638L150.458 65.7638C149.578 66.6171 148.605 67.3104 147.538 67.8438C146.498 68.3504 145.418 68.6038 144.298 68.6038ZM167.085 68.5238C165.992 68.5238 164.952 68.3104 163.965 67.8838C163.005 67.4571 162.165 66.8838 161.445 66.1638C160.725 65.4438 160.152 64.6038 159.725 63.6438C159.298 62.6571 159.085 61.6171 159.085 60.5238V48.1238H162.525V60.5238C162.525 61.1638 162.645 61.7638 162.885 62.3238C163.125 62.8838 163.445 63.3771 163.845 63.8038C164.272 64.2038 164.752 64.5238 165.285 64.7638C165.845 65.0038 166.445 65.1238 167.085 65.1238C167.725 65.1238 168.325 65.0038 168.885 64.7638C169.445 64.5238 169.925 64.2038 170.325 63.8038C170.752 63.3771 171.085 62.8838 171.325 62.3238C171.565 61.7638 171.685 61.1638 171.685 60.5238V48.1238H175.085V60.5238C175.085 61.1638 175.205 61.7638 175.445 62.3238C175.685 62.8838 176.018 63.3771 176.445 63.8038C176.872 64.2038 177.352 64.5238 177.885 64.7638C178.445 65.0038 179.045 65.1238 179.685 65.1238C180.325 65.1238 180.925 65.0038 181.485 64.7638C182.045 64.5238 182.525 64.2038 182.925 63.8038C183.352 63.3771 183.685 62.8838 183.925 62.3238C184.165 61.7638 184.285 61.1638 184.285 60.5238V48.1238H187.685V60.5238C187.685 61.6171 187.472 62.6571 187.045 63.6438C186.618 64.6038 186.045 65.4438 185.325 66.1638C184.605 66.8838 183.752 67.4571 182.765 67.8838C181.805 68.3104 180.778 68.5238 179.685 68.5238C178.405 68.5238 177.218 68.2571 176.125 67.7238C175.058 67.1638 174.138 66.4171 173.365 65.4838C172.645 66.4171 171.738 67.1638 170.645 67.7238C169.552 68.2571 168.365 68.5238 167.085 68.5238Z" fill="url(#paint1_linear_551_6)"/>
<defs>
<linearGradient id="paint0_linear_551_6" x1="33" y1="0" x2="33" y2="69" gradientUnits="userSpaceOnUse">
<stop stop-color="#999999" stop-opacity="0.5"/>
<stop offset="1" stop-color="#F5F5F5"/>
</linearGradient>
<linearGradient id="paint1_linear_551_6" x1="131.412" y1="43.1238" x2="131.412" y2="69.1238" gradientUnits="userSpaceOnUse">
<stop stop-color="#999999"/>
<stop offset="1" stop-color="#F5F5F5"/>
</linearGradient>
</defs>
</svg>
